<svg width="21" height="16" viewBox="0 0 21 16" fill="none" xmlns="http://www.w3.org/2000/svg">
<path d="M17.6026 1.2667C16.3359 0.676209 14.9644 0.247626 13.5358 0C13.5107 0.000357824 13.4867 0.0106277 13.4691 0.0285724C13.2977 0.342867 13.0977 0.752401 12.9644 1.0667C11.4491 0.838262 9.90809 0.838262 8.3928 1.0667C8.25947 0.742877 8.05946 0.342867 7.8785 0.0285724C7.86898 0.00952427 7.84041 0 7.81183 0C6.38322 0.247626 5.02128 0.676209 3.74506 1.2667C3.73553 1.2667 3.72601 1.27623 3.71648 1.28575C1.12594 5.16205 0.411631 8.93358 0.764022 12.667C0.764022 12.6861 0.773546 12.7051 0.792594 12.7146C2.50693 13.9718 4.15459 14.7337 5.78321 15.2385C5.81178 15.248 5.84035 15.2385 5.84988 15.2195C6.23084 14.6956 6.5737 14.1432 6.86895 13.5623C6.888 13.5242 6.86895 13.4861 6.83085 13.4766C6.28798 13.267 5.77368 13.0194 5.26891 12.7337C5.23081 12.7146 5.23081 12.6575 5.25938 12.6289C5.36415 12.5527 5.46891 12.467 5.57368 12.3908C5.59273 12.3718 5.6213 12.3718 5.64035 12.3813C8.91663 13.8766 12.4501 13.8766 15.6882 12.3813C15.7073 12.3718 15.7359 12.3718 15.7549 12.3908C15.8597 12.4765 15.9644 12.5527 16.0692 12.6384C16.1073 12.667 16.1073 12.7242 16.0597 12.7432C15.5644 13.0385 15.0406 13.2766 14.4977 13.4861C14.4596 13.4956 14.4501 13.5432 14.4596 13.5718C14.7644 14.1528 15.1073 14.7052 15.4787 15.229C15.5073 15.2385 15.5359 15.248 15.5644 15.2385C17.2026 14.7337 18.8502 13.9718 20.5646 12.7146C20.5836 12.7051 20.5931 12.6861 20.5931 12.667C21.0122 8.35261 19.8979 4.60965 17.6407 1.28575C17.6311 1.27623 17.6216 1.2667 17.6026 1.2667ZM7.3642 10.3908C6.38322 10.3908 5.56415 9.48597 5.56415 8.37166C5.56415 7.25734 6.36418 6.35256 7.3642 6.35256C8.37375 6.35256 9.17378 7.26687 9.16425 8.37166C9.16425 9.48597 8.36423 10.3908 7.3642 10.3908ZM14.0025 10.3908C13.0215 10.3908 12.2024 9.48597 12.2024 8.37166C12.2024 7.25734 13.0025 6.35256 14.0025 6.35256C15.012 6.35256 15.8121 7.26687 15.8025 8.37166C15.8025 9.48597 15.012 10.3908 14.0025 10.3908Z" fill="white"/>
</svg>
