<svg width="20" height="19" viewBox="0 0 20 19" fill="none" xmlns="http://www.w3.org/2000/svg">
<path d="M9.99905 0C15.5229 0 20 3.48952 20 7.79524C20 12.1 15.5229 15.5895 10 15.5895C9.45011 15.5886 8.90081 15.5536 8.35524 15.4848L4.15714 18.2305C3.68 18.4829 3.51143 18.4552 3.70762 17.8371L4.55714 14.3343C1.81429 12.9438 0 10.5343 0 7.79524C0 3.49048 4.47619 0 10 0M15.6267 7.67619L17.0267 6.32C17.1074 6.2361 17.1525 6.12413 17.1524 6.00766C17.1522 5.8912 17.1069 5.77933 17.0259 5.69563C16.9449 5.61193 16.8346 5.56292 16.7182 5.55894C16.6018 5.55496 16.4884 5.59631 16.4019 5.67429L14.5657 7.45143V5.98286C14.5657 5.86364 14.5184 5.7493 14.4341 5.665C14.3497 5.58069 14.2354 5.53333 14.1162 5.53333C13.997 5.53333 13.8826 5.58069 13.7983 5.665C13.714 5.7493 13.6667 5.86364 13.6667 5.98286V8.4181C13.6508 8.48768 13.6508 8.55994 13.6667 8.62952V10C13.6667 10.1192 13.714 10.2336 13.7983 10.3179C13.8826 10.4022 13.997 10.4495 14.1162 10.4495C14.2354 10.4495 14.3497 10.4022 14.4341 10.3179C14.5184 10.2336 14.5657 10.1192 14.5657 10V8.70191L14.9724 8.30857L16.3324 10.2448C16.3663 10.2931 16.4095 10.3343 16.4594 10.3659C16.5092 10.3976 16.5648 10.4191 16.623 10.4293C16.6812 10.4395 16.7408 10.4381 16.7985 10.4252C16.8562 10.4123 16.9107 10.3882 16.959 10.3543C17.0074 10.3203 17.0486 10.2772 17.0802 10.2273C17.1119 10.1774 17.1334 10.1218 17.1436 10.0636C17.1538 10.0054 17.1524 9.94582 17.1395 9.88817C17.1266 9.83051 17.1025 9.77596 17.0686 9.72762L15.6267 7.67619ZM12.8095 9.50857H11.419V5.99714C11.4137 5.88163 11.3641 5.7726 11.2805 5.69274C11.1968 5.61287 11.0856 5.5683 10.97 5.5683C10.8544 5.5683 10.7432 5.61287 10.6595 5.69274C10.5759 5.7726 10.5263 5.88163 10.521 5.99714V9.9581C10.521 10.2057 10.721 10.4076 10.9695 10.4076H12.8095C12.9287 10.4076 13.0431 10.3603 13.1274 10.276C13.2117 10.1917 13.259 10.0773 13.259 9.9581C13.259 9.83888 13.2117 9.72454 13.1274 9.64023C13.0431 9.55593 12.9287 9.50857 12.8095 9.50857ZM7.23143 8.46952L7.89429 6.84286L8.5019 8.46857L7.23143 8.46952ZM9.63429 8.93333L9.63619 8.9181C9.63587 8.80487 9.59265 8.69597 9.51524 8.61333L8.51905 5.94667C8.47729 5.81959 8.39774 5.70828 8.29104 5.62761C8.18433 5.54695 8.05555 5.50077 7.9219 5.49524C7.7874 5.49518 7.65602 5.5358 7.54502 5.61178C7.43403 5.68776 7.34862 5.79554 7.3 5.92095L5.71714 9.80191C5.67206 9.91229 5.67266 10.0361 5.71883 10.146C5.765 10.2559 5.85295 10.343 5.96333 10.3881C6.07371 10.4332 6.19748 10.4326 6.30742 10.3864C6.41735 10.3402 6.50444 10.2523 6.54952 10.1419L6.86571 9.36762H8.83714L9.12095 10.1295C9.14031 10.1865 9.17091 10.239 9.21092 10.2839C9.25093 10.3288 9.29956 10.3652 9.3539 10.391C9.40825 10.4168 9.46722 10.4314 9.52732 10.434C9.58741 10.4365 9.64741 10.427 9.70377 10.406C9.76012 10.3849 9.81168 10.3528 9.85539 10.3115C9.8991 10.2702 9.93407 10.2205 9.95823 10.1654C9.98239 10.1103 9.99524 10.0509 9.99604 9.99079C9.99684 9.93064 9.98555 9.87094 9.96286 9.81524L9.63429 8.93333ZM6.46952 6.00191C6.46977 5.94288 6.45835 5.88439 6.43591 5.8298C6.41347 5.77521 6.38045 5.7256 6.33876 5.68382C6.29707 5.64204 6.24752 5.60892 6.19298 5.58636C6.13844 5.5638 6.07998 5.55226 6.02095 5.55238H2.93048C2.81126 5.55238 2.69692 5.59974 2.61261 5.68404C2.52831 5.76835 2.48095 5.88268 2.48095 6.00191C2.48095 6.12113 2.52831 6.23546 2.61261 6.31977C2.69692 6.40407 2.81126 6.45143 2.93048 6.45143H4.03524V10.0095C4.03524 10.1287 4.0826 10.2431 4.1669 10.3274C4.2512 10.4117 4.36554 10.459 4.48476 10.459C4.60398 10.459 4.71832 10.4117 4.80262 10.3274C4.88693 10.2431 4.93429 10.1287 4.93429 10.0095V6.45143H6.02C6.0791 6.45168 6.13767 6.44023 6.19232 6.41772C6.24698 6.39522 6.29663 6.36212 6.33842 6.32033C6.38022 6.27854 6.41332 6.22888 6.43582 6.17423C6.45832 6.11958 6.46978 6.06101 6.46952 6.00191Z" fill="white"/>
</svg>
