<svg width="16" height="20" viewBox="0 0 16 20" fill="none" xmlns="http://www.w3.org/2000/svg">
<path d="M8.00007 8C8.42905 8 8.85383 7.90947 9.25016 7.73358C9.64649 7.55769 10.0066 7.29988 10.3099 6.97487C10.6133 6.64987 10.8539 6.26403 11.0181 5.83939C11.1822 5.41475 11.2667 4.95963 11.2667 4.5C11.2667 4.04037 11.1822 3.58525 11.0181 3.16061C10.8539 2.73597 10.6133 2.35013 10.3099 2.02513C10.0066 1.70012 9.64649 1.44231 9.25016 1.26642C8.85383 1.09053 8.42905 1 8.00007 1C7.13369 1 6.3028 1.36875 5.69018 2.02513C5.07756 2.6815 4.7334 3.57174 4.7334 4.5C4.7334 5.42826 5.07756 6.3185 5.69018 6.97487C6.3028 7.63125 7.13369 8 8.00007 8Z" fill="#6F757D" stroke="#6F757D" stroke-width="2" stroke-linecap="round" stroke-linejoin="round"/>
<path d="M1 18.4V19H15V18.4C15 16.16 15 15.04 14.5931 14.184C14.2351 13.4314 13.664 12.8195 12.9616 12.436C12.1627 12 11.1173 12 9.02667 12H6.97333C4.88267 12 3.83733 12 3.0384 12.436C2.33596 12.8195 1.76486 13.4314 1.40693 14.184C1 15.04 1 16.16 1 18.4Z" fill="#6F757D" stroke="#6F757D" stroke-width="2" stroke-linecap="round" stroke-linejoin="round"/>
</svg>
