<svg width="18" height="19" viewBox="0 0 18 19" fill="none" xmlns="http://www.w3.org/2000/svg">
<path d="M9.79396 0.291694C9.97391 0.112346 10.2154 0.00822094 10.4693 0.000466345C10.7233 -0.00728825 10.9707 0.0819096 11.1612 0.249943C11.3518 0.417977 11.4713 0.652246 11.4954 0.905169C11.5194 1.15809 11.4464 1.4107 11.291 1.61169L11.208 1.70569L10.794 2.11969H13.001C13.7662 2.11965 14.5025 2.41202 15.0592 2.93698C15.616 3.46194 15.9511 4.1798 15.996 4.94369L16.001 5.11969V12.2897C16.6681 12.5258 17.2303 12.9902 17.5883 13.6007C17.9463 14.2111 18.077 14.9285 17.9574 15.626C17.8377 16.3236 17.4754 16.9564 16.9345 17.4126C16.3935 17.8689 15.7087 18.1194 15.001 18.1197C14.3089 18.1199 13.6381 17.8809 13.1022 17.4431C12.5663 17.0054 12.1981 16.3958 12.0602 15.7177C11.9223 15.0395 12.023 14.3346 12.3454 13.7222C12.6677 13.1099 13.1918 12.6278 13.829 12.3577L14.001 12.2897V5.11969C14.0009 4.87476 13.911 4.63836 13.7482 4.45532C13.5855 4.27229 13.3612 4.15535 13.118 4.12669L13.001 4.11969H10.794L11.208 4.53369C11.3892 4.71324 11.495 4.95526 11.5036 5.21024C11.5123 5.46522 11.4232 5.71386 11.2545 5.90527C11.0858 6.09669 10.8504 6.2164 10.5963 6.2399C10.3423 6.2634 10.0889 6.18892 9.88796 6.03169L9.79396 5.94769L7.67296 3.82769C7.50036 3.65557 7.39658 3.42634 7.38111 3.18308C7.36564 2.93982 7.43956 2.69929 7.58896 2.50669L7.67296 2.41269L9.79296 0.291694H9.79396ZM3.00096 0.119694C3.69296 0.119475 4.36377 0.358497 4.89971 0.796262C5.43566 1.23403 5.80378 1.84361 5.94171 2.52173C6.07964 3.19986 5.9789 3.90481 5.65655 4.51715C5.3342 5.1295 4.81006 5.61157 4.17296 5.88169L4.00096 5.94969V12.2917C4.6667 12.5288 5.22739 12.9933 5.58426 13.6033C5.94112 14.2133 6.07126 14.9297 5.95174 15.6262C5.83223 16.3228 5.47073 16.9548 4.93093 17.4109C4.39113 17.867 3.70767 18.118 3.00096 18.1197C2.30895 18.1199 1.63814 17.8809 1.1022 17.4431C0.566256 17.0054 0.198132 16.3958 0.0602013 15.7177C-0.0777298 15.0395 0.0230148 14.3346 0.345365 13.7222C0.667715 13.1099 1.19185 12.6278 1.82896 12.3577L2.00096 12.2897V5.94869C1.33451 5.71205 0.773056 5.24764 0.415631 4.6374C0.0582054 4.02716 -0.072222 3.31029 0.0473574 2.61326C0.166937 1.91624 0.528839 1.28383 1.06922 0.827616C1.6096 0.371399 2.29375 0.120682 3.00096 0.119694Z" fill="#6F757D"/>
</svg>
