<svg width="16" height="18" viewBox="0 0 16 18" fill="none" xmlns="http://www.w3.org/2000/svg">
<path fill-rule="evenodd" clip-rule="evenodd" d="M8 0C7.76425 0 7.53816 0.0936505 7.37146 0.260349C7.20476 0.427048 7.11111 0.653141 7.11111 0.888889V2.66667H1.77778C1.30628 2.66667 0.854097 2.85397 0.520699 3.18737C0.187301 3.52076 0 3.97295 0 4.44444V16C0 16.4715 0.187301 16.9237 0.520699 17.2571C0.854097 17.5905 1.30628 17.7778 1.77778 17.7778H14.2222C14.6937 17.7778 15.1459 17.5905 15.4793 17.2571C15.8127 16.9237 16 16.4715 16 16V4.44444C16 3.97295 15.8127 3.52076 15.4793 3.18737C15.1459 2.85397 14.6937 2.66667 14.2222 2.66667H8.88889V0.888889C8.88889 0.653141 8.79524 0.427048 8.62854 0.260349C8.46184 0.0936505 8.23575 0 8 0ZM8.88889 2.66667V10.5138L10.5138 8.88889C10.6805 8.7221 10.9066 8.62835 11.1424 8.62826C11.3781 8.62818 11.6043 8.72177 11.7711 8.88844C11.9379 9.05512 12.0317 9.28122 12.0317 9.51702C12.0318 9.75281 11.9382 9.97898 11.7716 10.1458L8.78489 13.1316C8.57654 13.3397 8.29407 13.4567 7.99956 13.4567C7.70504 13.4567 7.42257 13.3397 7.21422 13.1316L4.22844 10.1458C4.14592 10.0632 4.08046 9.96516 4.03582 9.85728C3.99118 9.74939 3.96822 9.63377 3.96826 9.51702C3.96831 9.40026 3.99134 9.28466 4.03606 9.17681C4.08078 9.06896 4.1463 8.97097 4.22889 8.88844C4.31148 8.80592 4.40951 8.74046 4.51739 8.69582C4.62527 8.65118 4.74089 8.62822 4.85765 8.62826C4.9744 8.62831 5.09 8.65134 5.19786 8.69606C5.30571 8.74078 5.40369 8.8063 5.48622 8.88889L7.11111 10.5138V2.66667H8.88889Z" fill="#6F757D"/>
</svg>
