<svg width="16" height="16" viewBox="0 0 16 16" fill="none" xmlns="http://www.w3.org/2000/svg">
<path fill-rule="evenodd" clip-rule="evenodd" d="M9.2 0C11.0035 0 12.7331 0.716427 14.0083 1.99167C15.2836 3.26692 16 4.99653 16 6.8C16 8.60347 15.2836 10.3331 14.0083 11.6083C12.7331 12.8836 11.0035 13.6 9.2 13.6H8.8V14.392C8.8 14.4982 8.77907 14.6033 8.73842 14.7014C8.69776 14.7995 8.63817 14.8886 8.56306 14.9636C8.48794 15.0387 8.39878 15.0982 8.30065 15.1387C8.20253 15.1793 8.09738 15.2001 7.9912 15.2C6.0232 15.1984 4.0296 14.5416 2.5168 13.1968C0.9904 11.8384 0.0016 9.82 0 7.2072V6.8C0 4.99653 0.716427 3.26692 1.99167 1.99167C3.26692 0.716427 4.99653 0 6.8 0H9.2ZM5.2 5.6C4.88174 5.6 4.57652 5.72643 4.35147 5.95147C4.12643 6.17652 4 6.48174 4 6.8C4 7.11826 4.12643 7.42348 4.35147 7.64853C4.57652 7.87357 4.88174 8 5.2 8C5.51826 8 5.82348 7.87357 6.04853 7.64853C6.27357 7.42348 6.4 7.11826 6.4 6.8C6.4 6.48174 6.27357 6.17652 6.04853 5.95147C5.82348 5.72643 5.51826 5.6 5.2 5.6ZM10.8 5.6C10.4817 5.6 10.1765 5.72643 9.95147 5.95147C9.72643 6.17652 9.6 6.48174 9.6 6.8C9.6 7.11826 9.72643 7.42348 9.95147 7.64853C10.1765 7.87357 10.4817 8 10.8 8C11.1183 8 11.4235 7.87357 11.6485 7.64853C11.8736 7.42348 12 7.11826 12 6.8C12 6.48174 11.8736 6.17652 11.6485 5.95147C11.4235 5.72643 11.1183 5.6 10.8 5.6Z" fill="#6F757D"/>
</svg>
