<svg width="16" height="13" viewBox="0 0 16 13" fill="none" xmlns="http://www.w3.org/2000/svg">
<path d="M2.57143 0C1.88944 0 1.23539 0.280153 0.753154 0.77883C0.270918 1.27751 0 1.95386 0 2.65909V3.54545H16V2.65909C16 1.95386 15.7291 1.27751 15.2468 0.77883C14.7646 0.280153 14.1106 0 13.4286 0H2.57143ZM0 10.3409V4.72727H16V10.3409C16 11.0461 15.7291 11.7225 15.2468 12.2212C14.7646 12.7198 14.1106 13 13.4286 13H2.57143C1.88944 13 1.23539 12.7198 0.753154 12.2212C0.270918 11.7225 0 11.0461 0 10.3409ZM10.8571 8.27273C10.7056 8.27273 10.5602 8.33498 10.4531 8.4458C10.3459 8.55662 10.2857 8.70692 10.2857 8.86364C10.2857 9.02036 10.3459 9.17066 10.4531 9.28147C10.5602 9.39229 10.7056 9.45455 10.8571 9.45455H12.5714C12.723 9.45455 12.8683 9.39229 12.9755 9.28147C13.0827 9.17066 13.1429 9.02036 13.1429 8.86364C13.1429 8.70692 13.0827 8.55662 12.9755 8.4458C12.8683 8.33498 12.723 8.27273 12.5714 8.27273H10.8571Z" fill="#6F757D"/>
</svg>
