<svg width="16" height="16" viewBox="0 0 16 16" fill="none" xmlns="http://www.w3.org/2000/svg">
<path fill-rule="evenodd" clip-rule="evenodd" d="M0.0559999 2.6064C-5.58794e-08 2.9008 0 3.2544 0 3.96V9.6C0 12.6168 -1.19209e-07 14.1256 0.9376 15.0624C1.8752 15.9992 3.3832 16 6.4 16H9.6C12.6168 16 14.1256 16 15.0624 15.0624C15.9992 14.1248 16 12.6168 16 9.6V7.8384C16 5.7328 16 4.6792 15.384 3.9952C15.3275 3.93208 15.2677 3.87199 15.2048 3.8152C14.5208 3.2 13.4672 3.2 11.3616 3.2H11.0624C10.14 3.2 9.6784 3.2 9.248 3.0776C9.01181 3.01008 8.78417 2.91559 8.5696 2.796C8.1792 2.5792 7.8528 2.252 7.2 1.6L6.76 1.16C6.5408 0.9408 6.432 0.832 6.3168 0.736C5.82133 0.325312 5.21355 0.0735551 4.5728 0.0136C4.424 -3.25963e-08 4.2688 0 3.96 0C3.2536 0 2.9008 -5.58794e-08 2.6064 0.0559999C1.97427 0.175379 1.3928 0.482509 0.937845 0.937321C0.48289 1.39213 0.175577 1.97431 0.0559999 2.6064ZM8.2 6.4C8.2 6.24087 8.26321 6.08826 8.37574 5.97574C8.48826 5.86321 8.64087 5.8 8.8 5.8H12.8C12.9591 5.8 13.1117 5.86321 13.2243 5.97574C13.3368 6.08826 13.4 6.24087 13.4 6.4C13.4 6.55913 13.3368 6.71174 13.2243 6.82426C13.1117 6.93679 12.9591 7 12.8 7H8.8C8.64087 7 8.48826 6.93679 8.37574 6.82426C8.26321 6.71174 8.2 6.55913 8.2 6.4Z" fill="#6F757D"/>
</svg>
