<svg width="18" height="20" viewBox="0 0 18 20" fill="none" xmlns="http://www.w3.org/2000/svg">
<path d="M0.803081 3.6C0.75393 3.14626 0.800899 2.68725 0.940928 2.25286C1.08096 1.81847 1.31091 1.41845 1.6158 1.07884C1.9207 0.739222 2.29371 0.467633 2.71054 0.281754C3.12737 0.0958753 3.57868 -0.000126421 4.03508 1.24943e-07H13.9651C14.4214 1.40087e-05 14.8726 0.0961191 15.2893 0.28206C15.706 0.468001 16.0789 0.73961 16.3837 1.07921C16.6885 1.41881 16.9183 1.81878 17.0583 2.2531C17.1983 2.68741 17.2452 3.14634 17.1961 3.6L15.6401 17.991C15.5806 18.5428 15.3193 19.0532 14.9064 19.424C14.4935 19.7948 13.9581 20 13.4031 20H4.59608C4.04124 20 3.50595 19.795 3.09305 19.4244C2.68015 19.0538 2.41876 18.5436 2.35908 17.992L0.803081 3.6ZM2.30308 2.997H15.6971C15.6363 2.58106 15.4278 2.20089 15.1098 1.92601C14.7918 1.65113 14.3854 1.49991 13.9651 1.5H4.03508C3.14508 1.5 2.42408 2.16 2.30308 2.997ZM8.79208 8.409C8.81495 8.37497 8.84584 8.34709 8.88202 8.32781C8.91821 8.30853 8.95858 8.29844 8.99958 8.29844C9.04058 8.29844 9.08095 8.30853 9.11714 8.32781C9.15332 8.34709 9.18421 8.37497 9.20708 8.409L9.87708 9.409C9.93043 9.49398 10.0003 9.5674 10.0825 9.62489C10.1647 9.68239 10.2577 9.7228 10.3558 9.74374C10.4539 9.76467 10.5553 9.76571 10.6538 9.74677C10.7524 9.72784 10.8461 9.68932 10.9295 9.63351C11.0129 9.5777 11.0842 9.50572 11.1393 9.42184C11.1943 9.33796 11.232 9.24389 11.2501 9.14519C11.2681 9.04648 11.2662 8.94516 11.2444 8.84722C11.2226 8.74928 11.1813 8.65671 11.1231 8.575L10.4541 7.575C10.2942 7.33574 10.0778 7.13961 9.82397 7.00396C9.57017 6.86832 9.28685 6.79736 8.99908 6.79736C8.71131 6.79736 8.42799 6.86832 8.17419 7.00396C7.9204 7.13961 7.70397 7.33574 7.54408 7.575L6.87608 8.575C6.76549 8.74036 6.72511 8.94289 6.76384 9.13802C6.80256 9.33315 6.91722 9.50491 7.08258 9.6155C7.24794 9.7261 7.45047 9.76647 7.6456 9.72775C7.84073 9.68902 8.01249 9.57436 8.12308 9.409L8.79208 8.409ZM6.89208 11.628C6.94393 11.5435 6.97853 11.4496 6.99386 11.3517C7.0092 11.2538 7.00498 11.1538 6.98144 11.0575C6.95789 10.9612 6.9155 10.8706 6.85671 10.7908C6.79792 10.711 6.7239 10.6436 6.63892 10.5926C6.55394 10.5416 6.45969 10.5079 6.36162 10.4936C6.26355 10.4792 6.16361 10.4844 6.06757 10.5089C5.97153 10.5334 5.88129 10.5767 5.80208 10.6363C5.72287 10.6958 5.65625 10.7705 5.60608 10.856L5.24208 11.463C4.44208 12.796 5.40208 14.493 6.95708 14.493H7.74908C7.94799 14.493 8.13876 14.414 8.27941 14.2733C8.42006 14.1327 8.49908 13.9419 8.49908 13.743C8.49908 13.5441 8.42006 13.3533 8.27941 13.2127C8.13876 13.072 7.94799 12.993 7.74908 12.993H6.95708C6.86847 12.9931 6.78141 12.9697 6.70482 12.9251C6.62824 12.8805 6.56488 12.8164 6.52123 12.7393C6.47758 12.6622 6.45522 12.5748 6.45642 12.4862C6.45762 12.3976 6.48236 12.3109 6.52808 12.235L6.89208 11.628ZM11.3661 10.598C11.2814 10.6486 11.2076 10.7154 11.1488 10.7946C11.09 10.8738 11.0474 10.9638 11.0234 11.0595C10.9995 11.1552 10.9946 11.2546 11.0091 11.3522C11.0237 11.4497 11.0573 11.5435 11.1081 11.628L11.4721 12.235C11.5176 12.3109 11.5421 12.3975 11.5431 12.4859C11.5442 12.5744 11.5218 12.6616 11.4782 12.7385C11.4346 12.8155 11.3713 12.8795 11.2949 12.924C11.2184 12.9686 11.1315 12.992 11.0431 12.992H10.2491C10.0502 12.992 9.8594 13.071 9.71875 13.2117C9.5781 13.3523 9.49908 13.5431 9.49908 13.742C9.49908 13.9409 9.5781 14.1317 9.71875 14.2723C9.8594 14.413 10.0502 14.492 10.2491 14.492H11.0431C12.5971 14.492 13.5581 12.797 12.7591 11.464L12.3951 10.857C12.3445 10.7725 12.2777 10.6988 12.1986 10.6401C12.1195 10.5813 12.0296 10.5388 11.934 10.5148C11.8385 10.4909 11.7391 10.486 11.6417 10.5004C11.5442 10.5149 11.4506 10.5484 11.3661 10.599" fill="#6F757D"/>
</svg>
