<svg width="20" height="22" viewBox="0 0 20 22" fill="none" xmlns="http://www.w3.org/2000/svg">
<path d="M10.184 0.410156H10.182C7.09003 0.432156 4.70003 1.47316 3.09403 3.51616C1.66603 5.33116 0.934034 7.86416 0.910034 11.0062V11.0082C0.935034 14.1512 1.66603 16.6702 3.09403 18.4852C4.70003 20.5272 7.10303 21.5692 10.194 21.5902H10.196C12.944 21.5712 14.893 20.8502 16.499 19.2462C18.603 17.1432 18.541 14.5052 17.846 12.8832C17.316 11.6492 16.271 10.6622 14.87 10.0482C14.69 7.06316 13.01 5.32216 10.25 5.30416C8.62003 5.29416 7.14803 6.02416 6.24703 7.39116L7.90203 8.52716C8.43503 7.71816 9.27903 7.32816 10.237 7.33716C11.624 7.34616 12.537 8.11116 12.792 9.45416C11.9701 9.33103 11.1374 9.29583 10.308 9.34916C7.66803 9.50116 5.94003 11.0612 6.05503 13.2242C6.17503 15.4862 8.36703 16.7192 10.448 16.6052C12.94 16.4682 14.421 14.6292 14.772 12.2842C15.349 12.6572 15.775 13.1342 16.016 13.6972C16.456 14.7222 16.484 16.4132 15.101 17.7952C13.884 19.0112 12.421 19.5412 10.189 19.5572C7.71403 19.5392 5.85703 18.7462 4.65203 17.2142C3.52003 15.7742 2.92803 13.6882 2.90603 11.0002C2.92803 8.31216 3.52003 6.22516 4.65203 4.78716C5.85703 3.25416 7.71403 2.46216 10.189 2.44316C12.682 2.46216 14.573 3.25816 15.825 4.79916C16.516 5.64916 16.949 6.66516 17.238 7.71416L19.178 7.19716C18.815 5.85916 18.241 4.58416 17.363 3.50316C15.71 1.46916 13.281 0.432156 10.182 0.410156M10.419 11.3782C11.233 11.3244 12.0506 11.3768 12.851 11.5342C12.711 13.1122 12.058 14.4812 10.339 14.5752C9.22703 14.6382 8.10203 14.1412 8.04703 13.1142C8.00703 12.3502 8.57203 11.4842 10.419 11.3782Z" fill="white"/>
</svg>
